<?xml version="1.0" standalone="no"?>
<!DOCTYPE svg PUBLIC "-//W3C//DTD SVG 20010904//EN"
 "http://www.w3.org/TR/2001/REC-SVG-20010904/DTD/svg10.dtd">
<svg version="1.0" xmlns="http://www.w3.org/2000/svg"
 width="113.000000pt" height="113.000000pt" viewBox="0 0 113.000000 113.000000"
 preserveAspectRatio="xMidYMid meet">
<metadata>
Created by potrace 1.14, written by Peter Selinger 2001-2017
</metadata>
<g transform="translate(0.000000,113.000000) scale(0.100000,-0.100000)"
fill="#000000" stroke="none">
<path d="M30 565 c0 -503 1 -535 18 -536 103 -3 1044 0 1048 4 4 4 8 924 5
1045 l-1 22 -535 0 -535 0 0 -535z m1040 0 l0 -505 -505 0 -505 0 0 505 0 505
505 0 505 0 0 -505z"/>
<path d="M211 839 c-33 -20 -61 -71 -61 -111 0 -37 38 -88 76 -104 42 -18 88
-13 123 14 52 38 26 58 -37 27 -57 -29 -115 6 -115 71 0 48 30 78 79 76 20 -1
44 -8 53 -15 19 -16 43 -16 48 -1 6 19 -56 57 -97 60 -23 1 -49 -5 -69 -17z"/>
<path d="M504 852 c-10 -6 -104 -216 -104 -232 0 -3 10 -6 21 -6 14 0 27 11
37 32 14 29 19 32 55 30 34 -1 44 -7 57 -31 15 -27 33 -37 52 -28 8 4 -78 213
-95 230 -7 7 -17 9 -23 5z m14 -130 c-27 -5 -30 1 -17 34 l11 29 13 -30 c12
-27 12 -30 -7 -33z"/>
<path d="M659 846 c-1 -15 -1 -209 0 -221 1 -6 10 -11 21 -11 17 0 20 7 20 45
l0 45 31 -42 c17 -23 34 -42 37 -43 4 0 15 -2 25 -4 22 -4 22 -2 -9 45 l-26
39 25 23 c14 13 27 30 28 38 4 39 -3 61 -25 75 -28 18 -126 27 -127 11z m95
-42 c21 -8 21 -50 0 -58 -39 -15 -54 -7 -54 29 0 36 15 44 54 29z"/>
<path d="M870 846 c-52 -30 -42 -93 21 -121 44 -20 54 -38 33 -60 -19 -19 -28
-19 -44 0 -15 18 -50 20 -50 3 1 -25 29 -49 63 -55 29 -4 40 -1 61 20 46 46
30 101 -37 126 -15 6 -30 18 -34 27 -9 23 18 36 38 18 20 -18 49 -18 49 -1 0
41 -59 66 -100 43z"/>
<path d="M152 511 c-5 -3 -9 -58 -8 -121 1 -108 2 -115 21 -115 20 0 22 4 24
61 1 28 4 31 33 32 63 2 95 80 51 124 -19 18 -102 31 -121 19z m93 -71 c0 -21
-5 -26 -31 -28 -29 -3 -30 -1 -26 28 4 27 8 31 31 28 20 -2 26 -8 26 -28z"/>
<path d="M332 510 c-4 -3 -8 -57 -7 -120 0 -108 1 -115 20 -115 21 0 22 3 24
57 l1 32 33 -45 c20 -28 40 -44 55 -45 28 -2 28 2 -3 42 -14 18 -25 36 -25 39
0 4 11 16 25 27 48 37 22 126 -37 129 -13 1 -35 2 -51 3 -15 1 -31 -1 -35 -4z
m92 -46 c35 -13 11 -64 -30 -64 -25 0 -32 13 -26 47 4 23 25 29 56 17z"/>
<path d="M572 505 c-59 -25 -88 -106 -58 -164 35 -67 116 -89 177 -48 60 40
76 105 39 164 -33 54 -96 73 -158 48z m114 -61 c27 -40 25 -75 -7 -107 -25
-24 -34 -28 -62 -22 -41 9 -53 19 -65 54 -15 42 8 88 50 99 43 11 66 5 84 -24z"/>
<path d="M805 511 c-19 -6 -20 -14 -19 -116 2 -132 0 -120 24 -122 18 -2 20 4
20 48 l0 49 36 0 c31 0 35 3 32 23 -2 18 -9 22 -35 20 -30 -2 -33 1 -33 28 0
27 3 29 35 29 34 0 57 21 41 37 -8 8 -75 11 -101 4z"/>
<path d="M957 512 c-16 -3 -17 -15 -15 -120 3 -109 4 -117 23 -117 19 0 20 7
20 118 0 65 -2 120 -5 121 -3 1 -13 1 -23 -2z"/>
</g>
</svg>
